<svg xmlns="http://www.w3.org/2000/svg" xmlns:xlink="http://www.w3.org/1999/xlink" viewBox="0,0,256,256" width="90px" height="90px"><g fill="#ffffff" fill-rule="nonzero" stroke="none" stroke-width="1" stroke-linecap="butt" stroke-linejoin="miter" stroke-miterlimit="10" stroke-dasharray="" stroke-dashoffset="0" font-family="none" font-weight="none" font-size="none" text-anchor="none" style="mix-blend-mode: normal"><g transform="scale(5.12,5.12)"><path d="M22,0c-7,0 -12,7 -12,14c0,15.5 13,28 13,28c0,0 -9,-13 -9,-28c0,-12 8,-14 8,-14zM25,0c-2.6,0 -7,3.159 -7,15c0,11.058 5.57841,25.73742 5.81641,26.35742l0.24609,0.64258h1.875l0.24609,-0.64258c0.237,-0.62 5.81641,-15.29942 5.81641,-26.35742c0,-11.841 -4.4,-15 -7,-15zM28,0c0,0 8,2 8,14c0,15 -9,28 -9,28c0,0 13,-12.5 13,-28c0,-7 -5,-14 -12,-14zM14,2c0,0 -8,3 -8,12c0,17 15.5,28 15.5,28c0,0 -13.5,-12 -13.5,-28c0,-8.25 6,-12 6,-12zM36,2c0,0 6,3.75 6,12c0,16 -13.5,28 -13.5,28c0,0 15.5,-11 15.5,-28c0,-9 -8,-12 -8,-12zM21,44c-0.308,0 -0.59711,0.14177 -0.78711,0.38477c-0.19,0.243 -0.25859,0.55842 -0.18359,0.85742l1,4c0.112,0.444 0.5117,0.75781 0.9707,0.75781h6c0.459,0 0.8587,-0.31281 0.9707,-0.75781l1,-4c0.075,-0.299 0.00541,-0.61442 -0.18359,-0.85742c-0.189,-0.243 -0.47911,-0.38477 -0.78711,-0.38477z"></path></g></g></svg>